<?xml version="1.0" ?><!DOCTYPE svg  PUBLIC '-//W3C//DTD SVG 1.1//EN'  'http://www.w3.org/Graphics/SVG/1.1/DTD/svg11.dtd'><svg enable-background="new 0 0 96 96" height="96px" id="target" version="1.1" viewBox="0 0 96 96" width="96px" xml:space="preserve" xmlns="http://www.w3.org/2000/svg" xmlns:xlink="http://www.w3.org/1999/xlink"><path d="M48,4C23.7,4,4,23.699,4,48s19.7,44,44,44c24.301,0,44-19.699,44-44S72.301,4,48,4z M48,84c-19.882,0-36-16.118-36-36  s16.118-36,36-36s36,16.118,36,36S67.882,84,48,84z"/><path d="M48,20c-15.464,0-28,12.536-28,28s12.536,28,28,28s28-12.536,28-28S63.464,20,48,20z M48,68c-11.046,0-20-8.954-20-20  s8.955-20,20-20s20,8.955,20,20C68,59.046,59.046,68,48,68z"/><path d="M48,36c-6.627,0-12,5.373-12,12s5.373,12,12,12s12-5.373,12-12S54.627,36,48,36z M48,52c-2.209,0-4-1.791-4-4s1.791-4,4-4  s4,1.791,4,4S50.209,52,48,52z"/></svg>