<?xml version="1.0" ?><svg data-name="Layer 1" id="Layer_1" viewBox="0 0 24 24" xmlns="http://www.w3.org/2000/svg"><defs><style>.Graphic-Style{fill:none;stroke:#1d1d1b;stroke-linecap:round;stroke-linejoin:round;stroke-width:2px;}</style></defs><title/><path class="Graphic-Style" d="M17.7,5.09h.47a2.61,2.61,0,0,1,2.42,2.77v9.92a2.61,2.61,0,0,1-2.42,2.77H5.82a2.61,2.61,0,0,1-2.42-2.77V7.86A2.61,2.61,0,0,1,5.82,5.09h.45" data-name="&lt;Path&gt;" id="_Path_"/><line class="Graphic-Style" data-name="&lt;Path&gt;" id="_Path_2" x1="9.65" x2="14.33" y1="5.09" y2="5.09"/><path class="Graphic-Style" d="M16,8.28h0a1.69,1.69,0,0,1-1.69-1.69V3.9A1.69,1.69,0,0,1,16,2.22h0A1.69,1.69,0,0,1,17.7,3.9V6.59A1.69,1.69,0,0,1,16,8.28Z" data-name="&lt;Path&gt;" id="_Path_3"/><path class="Graphic-Style" d="M8,8.27H8A1.69,1.69,0,0,1,6.27,6.59V3.9A1.69,1.69,0,0,1,8,2.21H8A1.69,1.69,0,0,1,9.65,3.9V6.59A1.69,1.69,0,0,1,8,8.27Z" data-name="&lt;Path&gt;" id="_Path_4"/><line class="Graphic-Style" data-name="&lt;Path&gt;" id="_Path_5" x1="4" x2="20" y1="11" y2="11"/></svg>