<?xml version="1.0" ?><!DOCTYPE svg  PUBLIC '-//W3C//DTD SVG 1.1//EN'  'http://www.w3.org/Graphics/SVG/1.1/DTD/svg11.dtd'><svg enable-background="new 0 0 500 500" height="500px" id="Layer_1" version="1.1" viewBox="0 0 500 500" width="500px" xml:space="preserve" xmlns="http://www.w3.org/2000/svg" xmlns:xlink="http://www.w3.org/1999/xlink"><path clip-rule="evenodd" d="M277.258,276.758c0-12.54,10.176-22.715,22.712-22.715  s22.715,10.175,22.715,22.715c0,12.537-10.179,22.712-22.715,22.712S277.258,289.295,277.258,276.758z M299.97,217.701  c-32.615,0-59.056,26.441-59.056,59.057s26.44,59.052,59.056,59.052s59.057-26.436,59.057-59.052S332.585,217.701,299.97,217.701z   M31.949,381.241c0,20.079,16.264,36.34,36.34,36.34h363.421c20.078,0,36.34-16.261,36.34-36.34V172.274  c0-20.079-16.262-36.342-36.34-36.342H397.64l-46.521-46.52c-5.356-5.358-12.36-7.993-19.348-7.993h-63.511  c-6.993,0-14.081,2.635-19.352,7.993l-46.342,46.52h-34.336V115.49c0-8.811-7.08-15.9-15.901-15.9H93.274  c-8.819,0-15.899,7.089-15.899,15.9v20.442H68.29c-20.077,0-36.34,16.264-36.34,36.342V381.241z M150.061,217.701H95.548  c-9.992,0-18.173-8.177-18.173-18.17c0-9.996,8.181-18.173,18.173-18.173h54.512c9.99,0,18.17,8.177,18.17,18.173  C168.231,209.524,160.05,217.701,150.061,217.701z M299.97,181.358c52.693,0,95.396,42.705,95.396,95.4  c0,52.69-42.703,95.397-95.396,95.397c-52.694,0-95.396-42.707-95.396-95.397C204.574,224.063,247.276,181.358,299.97,181.358z" fill="#010101" fill-rule="evenodd"/></svg>