<?xml version="1.0" ?><!DOCTYPE svg  PUBLIC '-//W3C//DTD SVG 1.1//EN'  'http://www.w3.org/Graphics/SVG/1.1/DTD/svg11.dtd'><svg enable-background="new 0 0 500 500" height="500px" id="Layer_1" version="1.1" viewBox="0 0 500 500" width="500px" xml:space="preserve" xmlns="http://www.w3.org/2000/svg" xmlns:xlink="http://www.w3.org/1999/xlink"><path clip-rule="evenodd" d="M100.59,431.711c0,20.078,16.263,36.34,36.342,36.34h227.137  c20.078,0,36.341-16.262,36.341-36.34V54.662c0-12.536-10.176-22.713-22.712-22.713s-22.716,10.177-22.716,22.713v22.713h-218.05  c-20.079,0-36.342,16.264-36.342,36.343V431.711z M166.007,122.802h168.988c11.082,0,19.987,8.905,19.987,19.991v96.302  c0,11.086-8.905,19.991-19.987,19.991H166.007c-11.082,0-19.989-8.904-19.989-19.991v-96.302  C146.018,131.707,154.925,122.802,166.007,122.802z M146.018,318.142c0-12.536,10.177-22.715,22.713-22.715  s22.714,10.179,22.714,22.715c0,12.537-10.178,22.711-22.714,22.711S146.018,330.679,146.018,318.142z M227.788,318.142  c0-12.536,10.177-22.715,22.713-22.715c12.536,0,22.715,10.179,22.715,22.715c0,12.537-10.179,22.711-22.715,22.711  C237.964,340.853,227.788,330.679,227.788,318.142z M309.557,318.142c0-12.536,10.175-22.715,22.716-22.715  c12.535,0,22.71,10.179,22.71,22.715c0,12.537-10.175,22.711-22.71,22.711C319.731,340.853,309.557,330.679,309.557,318.142z   M146.018,399.909c0-12.536,10.177-22.711,22.713-22.711s22.714,10.175,22.714,22.711c0,12.54-10.178,22.715-22.714,22.715  S146.018,412.449,146.018,399.909z M227.788,399.909c0-12.536,10.177-22.711,22.713-22.711c12.536,0,22.715,10.175,22.715,22.711  c0,12.54-10.179,22.715-22.715,22.715C237.964,422.624,227.788,412.449,227.788,399.909z M309.557,399.909  c0-12.536,10.175-22.711,22.716-22.711c12.535,0,22.71,10.175,22.71,22.711c0,12.54-10.175,22.715-22.71,22.715  C319.731,422.624,309.557,412.449,309.557,399.909z" fill="#010101" fill-rule="evenodd"/></svg>