<?xml version="1.0" ?><!DOCTYPE svg  PUBLIC '-//W3C//DTD SVG 1.1//EN'  'http://www.w3.org/Graphics/SVG/1.1/DTD/svg11.dtd'><svg enable-background="new 0 0 96 96" height="96px" id="square_check" version="1.1" viewBox="0 0 96 96" width="96px" xml:space="preserve" xmlns="http://www.w3.org/2000/svg" xmlns:xlink="http://www.w3.org/1999/xlink"><path d="M80,4H16C9.37,4,4,9.37,4,16v64c0,6.63,5.37,12,12,12h64c6.63,0,12-5.37,12-12V16C92,9.37,86.63,4,80,4z M84,80  c0,2.21-1.79,4-4,4H16c-2.21,0-4-1.79-4-4V16c0-2.21,1.79-4,4-4h64c2.21,0,4,1.79,4,4V80z"/><path d="M66.385,35.272c-1.562-1.562-4.095-1.562-5.656,0L43.757,52.243l-8.485-8.485c-1.562-1.562-4.095-1.562-5.657,0  c-1.562,1.562-1.562,4.095,0,5.657l11.312,11.312c1.562,1.562,4.095,1.562,5.657,0l19.799-19.799  C67.947,39.367,67.947,36.835,66.385,35.272z"/></svg>