<?xml version="1.0" ?><!DOCTYPE svg  PUBLIC '-//W3C//DTD SVG 1.1//EN'  'http://www.w3.org/Graphics/SVG/1.1/DTD/svg11.dtd'><svg enable-background="new 0 0 96 96" height="96px" id="circle_check" version="1.1" viewBox="0 0 96 96" width="96px" xml:space="preserve" xmlns="http://www.w3.org/2000/svg" xmlns:xlink="http://www.w3.org/1999/xlink"><path d="M48,4C23.7,4,4,23.699,4,48s19.7,44,44,44s44-19.699,44-44S72.3,4,48,4z M48,84c-19.882,0-36-16.118-36-36s16.118-36,36-36  s36,16.118,36,36S67.882,84,48,84z"/><path d="M64.284,37.17c-1.562-1.561-4.095-1.561-5.657,0L44.485,51.313l-5.657-5.657c-1.562-1.562-4.094-1.562-5.657,0  c-1.562,1.562-1.562,4.095,0,5.658l8.484,8.483c1.562,1.562,4.096,1.562,5.658,0l16.97-16.97  C65.846,41.265,65.848,38.733,64.284,37.17z"/></svg>