<?xml version="1.0" ?><!DOCTYPE svg  PUBLIC '-//W3C//DTD SVG 1.1//EN'  'http://www.w3.org/Graphics/SVG/1.1/DTD/svg11.dtd'><svg enable-background="new 0 0 500 500" height="500px" id="Layer_1" version="1.1" viewBox="0 0 500 500" width="500px" xml:space="preserve" xmlns="http://www.w3.org/2000/svg" xmlns:xlink="http://www.w3.org/1999/xlink"><path clip-rule="evenodd" d="M109.676,329.772c0,76.403,63.053,138.278,140.825,138.278  c77.778,0,140.823-61.875,140.823-138.278c0-97.943-109.29-161.542-118.108-270.567v-4.543c0-12.536-10.179-22.713-22.715-22.713  c-12.537,0-22.713,10.177-22.713,22.713v4.543C218.701,168.231,109.676,231.83,109.676,329.772z M270.037,386.284  c19.628-4.543,35.243-21.26,39.786-39.52c1.552-8.544,8.994-14.993,17.905-14.993c9.987,0,18.168,8.181,18.168,18.167  c0,13.079-10.992,32.983-25.978,47.876c-14.726,14.543-32.261,24.81-46.703,24.81c-9.991,0-18.172-8.447-18.172-18.436  C255.044,395.278,261.493,387.828,270.037,386.284z" fill="#010101" fill-rule="evenodd"/></svg>