<?xml version="1.0" ?><svg contentScriptType="text/ecmascript" contentStyleType="text/css" enable-background="new 0 0 2048 2048" height="2048px" id="Layer_1" preserveAspectRatio="xMidYMid meet" version="1.1" viewBox="0.0 0 1784.0 2048" width="1784.0px" xml:space="preserve" xmlns="http://www.w3.org/2000/svg" xmlns:xlink="http://www.w3.org/1999/xlink" zoomAndPan="magnify"><path d="M888,1312l116-116l-152-152l-116,116v56h96v96H888z M1328,592c-10.667-10.667-21.667-10.333-33,1L945,943  c-11.333,11.333-11.667,22.333-1,33s21.667,10.333,33-1l350-350C1338.333,613.667,1338.667,602.667,1328,592z M1408,1186v190  c0,79.333-28.167,147.167-84.5,203.5S1199.333,1664,1120,1664H288c-79.333,0-147.167-28.167-203.5-84.5S0,1455.333,0,1376V544  c0-79.333,28.167-147.167,84.5-203.5S208.667,256,288,256h832c42,0,81,8.333,117,25c10,4.667,16,12.333,18,23c2,11.333-1,21-9,29  l-49,49c-9.333,9.333-20,12-32,8c-15.333-4-30.333-6-45-6H288c-44,0-81.667,15.667-113,47s-47,69-47,113v832  c0,44,15.667,81.667,47,113s69,47,113,47h832c44,0,81.667-15.667,113-47s47-69,47-113v-126c0-8.667,3-16,9-22l64-64  c10-10,21.667-12.333,35-7C1401.333,1162.333,1408,1172,1408,1186z M1312,448l288,288l-672,672H640v-288L1312,448z M1756,580l-92,92  l-288-288l92-92c18.667-18.667,41.333-28,68-28s49.333,9.333,68,28l152,152c18.667,18.667,28,41.333,28,68  S1774.667,561.333,1756,580z"/></svg>