<?xml version="1.0" ?><svg contentScriptType="text/ecmascript" contentStyleType="text/css" enable-background="new 0 0 2048 2048" height="2048px" id="Layer_1" preserveAspectRatio="xMidYMid meet" version="1.1" viewBox="0.0 0 1792.0 2048" width="1792.0px" xml:space="preserve" xmlns="http://www.w3.org/2000/svg" xmlns:xlink="http://www.w3.org/1999/xlink" zoomAndPan="magnify"><path d="M1792,838v794c0,44-15.667,81.667-47,113s-69,47-113,47H160c-44,0-81.667-15.667-113-47s-47-69-47-113V838  c29.333,32.667,63,61.667,101,87c241.333,164,407,279,497,345c38,28,68.833,49.833,92.5,65.5s55.167,31.667,94.5,48  s76,24.5,110,24.5h1h1c34,0,70.667-8.167,110-24.5c39.333-16.333,70.833-32.333,94.5-48s54.5-37.5,92.5-65.5  c113.333-82,279.333-197,498-345C1730,899,1763.333,870,1792,838z M1792,544c0,52.667-16.333,103-49,151s-73.333,89-122,123  c-250.667,174-406.667,282.333-468,325c-6.667,4.667-20.833,14.833-42.5,30.5s-39.667,28.333-54,38s-31.667,20.5-52,32.5  c-20.333,12-39.5,21-57.5,27s-34.667,9-50,9h-1h-1c-15.333,0-32-3-50-9s-37.167-15-57.5-27s-37.667-22.833-52-32.5  s-32.333-22.333-54-38s-35.833-25.833-42.5-30.5c-60.667-42.667-148-103.5-262-182.5S194.667,834,172,818  c-41.333-28-80.333-66.5-117-115.5S0,608,0,566c0-52,13.833-95.333,41.5-130s67.167-52,118.5-52h1472  c43.333,0,80.833,15.667,112.5,47S1792,500,1792,544z"/></svg>