<?xml version="1.0" encoding="iso-8859-1"?>
<!-- Generator: Adobe Illustrator 18.0.0, SVG Export Plug-In . SVG Version: 6.00 Build 0)  -->
<!DOCTYPE svg PUBLIC "-//W3C//DTD SVG 1.1//EN" "http://www.w3.org/Graphics/SVG/1.1/DTD/svg11.dtd">
<svg version="1.1" id="Capa_1" xmlns="http://www.w3.org/2000/svg" xmlns:xlink="http://www.w3.org/1999/xlink" x="0px" y="0px"
	 viewBox="0 0 395 395" style="enable-background:new 0 0 395 395;" xml:space="preserve">
<g>
	<path d="M313.002,0H82C36.785,0,0,36.784,0,81.998v230.993C0,358.211,36.785,395,82,395h231.002
		C358.216,395,395,358.211,395,312.991V81.998C395,36.784,358.216,0,313.002,0z M380,312.991C380,349.94,349.944,380,313.002,380H82
		c-36.944,0-67-30.06-67-67.009V81.998C15,45.056,45.056,15,82,15h231.002C349.944,15,380,45.056,380,81.998V312.991z"/>
	<path d="M279.729,44.815l-77.602,7.286c-1.118-8.066-8.024-14.284-16.399-14.284c-6.031,0-11.294,3.231-14.194,8.048
		c-5.401-4.955-12.595-7.985-20.483-7.985c-16.731,0-30.343,13.611-30.343,30.341c0,10.057,4.923,18.981,12.481,24.505
		l-23.336,12.412c-4.69,2.495-6.471,8.32-3.976,13.011c1.729,3.251,5.059,5.104,8.501,5.104c1.524,0,3.07-0.363,4.51-1.129
		l25.912-13.782c-6.158,7.815-9.846,17.663-9.846,28.362v202.509c0,4.578,3.709,8.287,8.287,8.287h84.973
		c4.574,0,8.287-3.709,8.287-8.287V136.704c0-21.269-14.538-39.2-34.197-44.397v-1.99l77.425,7.27
		c0.301,0.028,0.601,0.042,0.899,0.042c2.385,0,4.697-0.887,6.477-2.507c2.002-1.823,3.143-4.405,3.143-7.113V54.394
		c0-2.708-1.142-5.29-3.143-7.113C285.103,45.457,282.432,44.563,279.729,44.815z M151.051,57.12c6.118,0,11.095,4.98,11.095,11.101
		c0,6.12-4.977,11.1-11.095,11.1c-6.122,0-11.103-4.979-11.103-11.1C139.948,62.1,144.929,57.12,151.051,57.12z M219.408,271.043
		h-67.361v-82.879h67.361V271.043z"/>
	<path d="M179.191,255.954c-2.883-11.278,0.111-18.014,7.787-22.281c-2.316,14.671,4.189,9.742,3.432,22.281
		c9.223-6.253,14.34-17.338,13.285-27.792c-1.51-14.916-13.35-23.138-23.428-24.91c1.492,14.723-3.582,14.554-9.621,25.599
		C163.609,241.715,169.844,252.423,179.191,255.954z"/>
</g>
<g>
</g>
<g>
</g>
<g>
</g>
<g>
</g>
<g>
</g>
<g>
</g>
<g>
</g>
<g>
</g>
<g>
</g>
<g>
</g>
<g>
</g>
<g>
</g>
<g>
</g>
<g>
</g>
<g>
</g>
</svg>
