<?xml version="1.0" encoding="iso-8859-1"?>
<!-- Generator: Adobe Illustrator 18.0.0, SVG Export Plug-In . SVG Version: 6.00 Build 0)  -->
<!DOCTYPE svg PUBLIC "-//W3C//DTD SVG 1.1//EN" "http://www.w3.org/Graphics/SVG/1.1/DTD/svg11.dtd">
<svg version="1.1" id="Capa_1" xmlns="http://www.w3.org/2000/svg" xmlns:xlink="http://www.w3.org/1999/xlink" x="0px" y="0px"
	 viewBox="0 0 345.309 345.309" style="enable-background:new 0 0 345.309 345.309;" xml:space="preserve">
<g>
	<path d="M156.166,108.357c-36.127,0-68.252,17.12-88.719,43.685h177.439C224.418,125.477,192.295,108.357,156.166,108.357z"/>
	<path d="M276.908,182.596c0.242-3.483,0.367-7.002,0.367-10.555c0-66.74-43.676-122.314-100.84-133.098
		c-0.656-10.638-9.467-19.068-20.27-19.068c-10.803,0-19.613,8.431-20.27,19.068C78.733,49.727,35.059,105.301,35.059,172.042
		c0,3.67,0.137,7.303,0.396,10.898H10c-5.523,0-10,4.478-10,10v28.455c0,24.289,16.742,43.001,26.723,51.993
		c14.984,13.503,32.721,21.892,46.284,21.894h0.003c0.019,0,0.037-0.002,0.055-0.002c12.08,13.379,27.34,23.832,44.594,30.153
		h77.018c38.197-13.995,66.623-48.218,72.351-89.689c5.008-10.483,16.073-25.104,40.107-32.339l-8.936-29.686
		C290.168,176.137,283.114,179.167,276.908,182.596z M156.166,57.043c55.752,0,101.109,51.589,101.109,114.999
		c0,0.057-0.002,0.113-0.002,0.17c-0.027-0.057-0.051-0.113-0.078-0.17H55.137c-0.026,0.055-0.051,0.111-0.076,0.166
		c0-0.056-0.002-0.11-0.002-0.166C55.059,108.631,100.415,57.043,156.166,57.043z M20,221.395V202.94h18.264
		c1.512,7.17,3.539,14.117,6.033,20.799c0.498,16.468,4.55,32.037,11.42,45.975C38.939,260.591,20,241.457,20,221.395z"/>
	<path d="M320.369,143.26c-3.169-7.924-9.307-13.172-14.367-19.766c-8.525-10.605-6.77-23.754,1.494-33.918
		c-9.363,3.854-15.51,13.834-14.931,23.883c0.526,9.142,5.675,16.584,11.569,23.179c3.801,4.252,7.223,8.55,9.246,13.99
		c3.408,9.626-0.104,19.69-5.885,27.614C320.595,172.085,325.616,156.289,320.369,143.26
		C319.716,141.627,321.027,144.895,320.369,143.26z"/>
	<path d="M344.275,133.872c-2.133-6.386-7.22-10.559-12.201-14.66c-6.914-6.313-8.268-14.189-4.336-22.737
		c-14.703,6.599-9.195,24.395,0.446,32.494c8.841,7.427,12.464,15.515,7.935,26.918
		C343.965,151.894,347.129,141.932,344.275,133.872C343.877,132.678,345.114,136.241,344.275,133.872z"/>
</g>
<g>
</g>
<g>
</g>
<g>
</g>
<g>
</g>
<g>
</g>
<g>
</g>
<g>
</g>
<g>
</g>
<g>
</g>
<g>
</g>
<g>
</g>
<g>
</g>
<g>
</g>
<g>
</g>
<g>
</g>
</svg>
