<?xml version="1.0" ?><svg contentScriptType="text/ecmascript" contentStyleType="text/css" enable-background="new 0 0 2048 2048" height="2048px" id="Layer_1" preserveAspectRatio="xMidYMid meet" version="1.1" viewBox="0.0 0 1536.0 2048" width="1536.0px" xml:space="preserve" xmlns="http://www.w3.org/2000/svg" xmlns:xlink="http://www.w3.org/1999/xlink" zoomAndPan="magnify"><path d="M768,256c139.333,0,267.833,34.333,385.5,103s210.833,161.833,279.5,279.5s103,246.167,103,385.5s-34.333,267.833-103,385.5  s-161.833,210.833-279.5,279.5S907.333,1792,768,1792s-267.833-34.333-385.5-103S171.667,1527.167,103,1409.5S0,1163.333,0,1024  s34.333-267.833,103-385.5S264.833,427.667,382.5,359S628.667,256,768,256z M1042,777c-1.333,0.667-4.5,3.833-9.5,9.5  s-9.5,8.833-13.5,9.5c1.333,0,2.833-1.667,4.5-5c1.667-3.333,3.333-7,5-11s2.833-6.333,3.5-7c4-4.667,11.333-9.667,22-15  c9.333-4,26.667-8,52-12c22.667-5.333,39.667-1.667,51,11c-1.333-1.333,1.833-5.667,9.5-13s12.5-11.333,14.5-12  c2-1.333,7-2.833,15-4.5s13-4.167,15-7.5l2-22c-8,0.667-13.833-1.667-17.5-7s-5.833-12.333-6.5-21c0,1.333-2,4-6,8  c0-4.667-1.5-7.333-4.5-8s-6.833-0.333-11.5,1s-7.667,1.667-9,1c-6.667-2-11.667-4.5-15-7.5s-6-8.5-8-16.5s-3.333-13-4-15  c-1.333-3.333-4.5-6.833-9.5-10.5s-8.167-7.167-9.5-10.5c-0.667-1.333-1.5-3.167-2.5-5.5s-2-4.5-3-6.5s-2.333-3.833-4-5.5  s-3.5-2.5-5.5-2.5s-4.333,1.667-7,5s-5.167,6.667-7.5,10s-3.833,5-4.5,5c-2-1.333-4-1.833-6-1.5s-3.5,0.667-4.5,1s-2.5,1.333-4.5,3  s-3.667,2.833-5,3.5c-2,1.333-4.833,2.333-8.5,3s-6.5,1.333-8.5,2c10-3.333,9.667-7-1-11c-6.667-2.667-12-3.667-16-3  c6-2.667,8.5-6.667,7.5-12s-3.833-10-8.5-14h5c-0.667-2.667-3.5-5.5-8.5-8.5s-10.833-5.833-17.5-8.5s-11-4.667-13-6  c-5.333-3.333-16.667-6.5-34-9.5s-28.333-3.167-33-0.5c-3.333,4-4.833,7.5-4.5,10.5s1.667,7.667,4,14S925,585,925,587  c0.667,4-1.167,8.333-5.5,13s-6.5,8.667-6.5,12c0,4.667,4.667,9.833,14,15.5s12.667,12.833,10,21.5c-2,5.333-7.333,10.667-16,16  s-14,9.333-16,12c-3.333,5.333-3.833,11.5-1.5,18.5S909.333,708,914,712c1.333,1.333,1.833,2.667,1.5,4s-1.5,2.833-3.5,4.5  s-3.833,3-5.5,4s-3.833,2.167-6.5,3.5l-3,2c-7.333,3.333-14.167,1.333-20.5-6s-10.833-16-13.5-26c-4.667-16.667-10-26.667-16-30  c-15.333-5.333-25-5-29,1c-3.333-8.667-17-17.333-41-26c-16.667-6-36-7.333-58-4c4-0.667,4-5.667,0-15c-4.667-10-11-14-19-12  c2-4,3.333-9.833,4-17.5s1-12.167,1-13.5c2-8.667,6-16.333,12-23c0.667-0.667,3-3.5,7-8.5s7.167-9.5,9.5-13.5s2.5-6,0.5-6  c23.333,2.667,40-1,50-11c3.333-3.333,7.167-9,11.5-17s7.833-13.667,10.5-17c6-4,10.667-5.833,14-5.5s8.167,2.167,14.5,5.5  s11.167,5,14.5,5c9.333,0.667,14.5-3,15.5-11s-1.5-14.667-7.5-20c8,0.667,9-5,3-17c-3.333-4.667-6-7.667-8-9c-8-2.667-17-1-27,5  c-5.333,2.667-4.667,5.333,2,8c-0.667-0.667-3.833,2.833-9.5,10.5S806.333,470,801,474s-10.667,2.333-16-5  c-0.667-0.667-2.5-5.167-5.5-13.5s-6.167-12.833-9.5-13.5c-5.333,0-10.667,5-16,15c2-5.333-1.667-10.333-11-15s-17.333-7.333-24-8  c12.667-8,10-17-8-27c-4.667-2.667-11.5-4.333-20.5-5s-15.5,0.667-19.5,4c-3.333,4.667-5.167,8.5-5.5,11.5s1.333,5.667,5,8  s7.167,4.167,10.5,5.5s7.167,2.667,11.5,4s7.167,2.333,8.5,3c9.333,6.667,12,11.333,8,14c-1.333,0.667-4.167,1.833-8.5,3.5  s-8.167,3.167-11.5,4.5s-5.333,2.667-6,4c-2,2.667-2,7.333,0,14s1.333,11.333-2,14c-3.333-3.333-6.333-9.167-9-17.5  s-5-13.833-7-16.5c4.667,6-3.667,8-25,6l-10-1c-2.667,0-8,0.667-16,2s-14.833,1.667-20.5,1s-10.167-3.333-13.5-8  c-2.667-5.333-2.667-12,0-20c0.667-2.667,2-3.333,4-2c-2.667-2-6.333-5.167-11-9.5s-8-7.167-10-8.5c-30.667,10-62,23.667-94,41  c4,0.667,8,0.333,12-1c3.333-1.333,7.667-3.5,13-6.5s8.667-4.833,10-5.5c22.667-9.333,36.667-11.667,42-7l5-5  c9.333,10.667,16,19,20,25c-4.667-2.667-14.667-3-30-1c-13.333,4-20.667,8-22,12c4.667,8,6.333,14,5,18c-2.667-2-6.5-5.333-11.5-10  s-9.833-8.333-14.5-11s-9.667-4.333-15-5c-10.667,0-18,0.333-22,1c-97.333,53.333-175.667,127.333-235,222  c4.667,4.667,8.667,7.333,12,8c2.667,0.667,4.333,3.667,5,9s1.5,9,2.5,11s4.833,1,11.5-3c6,5.333,7,11.667,3,19  c0.667-0.667,15.333,8.333,44,27c12.667,11.333,19.667,18.333,21,21c2,7.333-1.333,13.333-10,18c-0.667-1.333-3.667-4.333-9-9  s-8.333-6-9-4c-2,3.333-1.833,9.5,0.5,18.5s5.833,13.167,10.5,12.5c-4.667,0-7.833,5.333-9.5,16s-2.5,22.5-2.5,35.5  s-0.333,20.833-1,23.5l2,1c-2,8-0.167,19.5,5.5,34.5S315.333,945,324,943c-8.667,2-2,16.333,20,43c4,5.333,6.667,8.333,8,9  c2,1.333,6,3.833,12,7.5s11,7,15,10s7.333,6.5,10,10.5c2.667,3.333,6,10.833,10,22.5s8.667,19.5,14,23.5  c-1.333,4,1.833,10.667,9.5,20s11.167,17,10.5,23c-0.667,0-1.5,0.333-2.5,1s-1.833,1-2.5,1c2,4.667,7.167,9.333,15.5,14  s13.5,9,15.5,13c0.667,2,1.333,5.333,2,10c0.667,4.667,1.667,8.333,3,11s4,3.333,8,2c1.333-13.333-6.667-34-24-62  c-10-16.667-15.667-26.333-17-29c-2-3.333-3.833-8.5-5.5-15.5s-3.167-11.833-4.5-14.5c1.333,0,3.333,0.5,6,1.5s5.5,2.167,8.5,3.5  s5.5,2.667,7.5,4s2.667,2.333,2,3c-2,4.667-1.333,10.5,2,17.5s7.333,13.167,12,18.5s10.333,11.667,17,19s10.667,11.667,12,13  c4,4,8.667,10.5,14,19.5s5.333,13.5,0,13.5c6,0,12.667,3.333,20,10s13,13.333,17,20c3.333,5.333,6,14,8,26s3.667,20,5,24  c1.333,4.667,4.167,9.167,8.5,13.5s8.5,7.5,12.5,9.5l16,8c0,0,4.333,2.333,13,7c3.333,1.333,9.5,4.833,18.5,10.5  s16.167,9.5,21.5,11.5c6.667,2.667,12,4,16,4s8.833-0.833,14.5-2.5s10.167-2.833,13.5-3.5c10-1.333,19.667,3.667,29,15  s16.333,18.333,21,21c24,12.667,42.333,16.333,55,11c-1.333,0.667-1.167,3.167,0.5,7.5s4.333,9.5,8,15.5s6.667,10.833,9,14.5  s4.167,6.5,5.5,8.5c3.333,4,9.333,9,18,15s14.667,11,18,15c4-2.667,6.333-5.667,7-9c-2,5.333,0.333,12,7,20s12.667,11.333,18,10  c9.333-2,14-12.667,14-32c-20.667,10-37,4-49-18c0-0.667-0.833-2.5-2.5-5.5s-3-5.833-4-8.5s-1.833-5.5-2.5-8.5s-0.667-5.5,0-7.5  s2.333-3,5-3c6,0,9.333-1.167,10-3.5s0-6.5-2-12.5s-3.333-10.333-4-13c-0.667-5.333-4.333-12-11-20s-10.667-13-12-15  c-3.333,6-8.667,8.667-16,8s-12.667-3.667-16-9c0,0.667-0.5,2.5-1.5,5.5s-1.5,5.167-1.5,6.5c-8.667,0-13.667-0.333-15-1  c0.667-2,1.5-7.833,2.5-17.5s2.167-17.167,3.5-22.5c0.667-2.667,2.5-6.667,5.5-12s5.5-10.167,7.5-14.5s3.333-8.5,4-12.5  s-0.833-7.167-4.5-9.5s-9.5-3.167-17.5-2.5c-12.667,0.667-21.333,7.333-26,20c-0.667,2-1.667,5.5-3,10.5s-3,8.833-5,11.5s-5,5-9,7  c-4.667,2-12.667,2.667-24,2s-19.333-2.333-24-5c-8.667-5.333-16.167-15-22.5-29s-9.5-26.333-9.5-37c0-6.667,0.833-15.5,2.5-26.5  s2.667-19.333,3-25s-1.5-13.833-5.5-24.5c2-1.333,5-4.5,9-9.5s7.333-8.5,10-10.5c1.333-0.667,2.833-1.167,4.5-1.5s3.167-0.333,4.5,0  s2.667-0.167,4-1.5s2.333-3.333,3-6c-0.667-0.667-2-1.667-4-3c-2-2-3.333-3-4-3c4.667,2,14.167,1.5,28.5-1.5s23.5-2.5,27.5,1.5  c10,7.333,17.333,6.667,22-2c0-0.667-0.833-3.833-2.5-9.5s-1.833-10.167-0.5-13.5c3.333,18,13,21,29,9c2,2,7.167,3.667,15.5,5  s14.167,3,17.5,5c2,1.333,4.333,3.167,7,5.5s4.5,3.833,5.5,4.5s2.667,0.5,5-0.5s5.167-3.167,8.5-6.5  c6.667,9.333,10.667,17.333,12,24c7.333,26.667,13.667,41.333,19,44c4.667,2,8.333,2.667,11,2s4.167-3.833,4.5-9.5  s0.333-10.333,0-14s-0.833-7.833-1.5-12.5l-1-8v-18l-1-8c-10-2-16.167-6-18.5-12s-1.833-12.167,1.5-18.5s8.333-12.5,15-18.5  c0.667-0.667,3.333-1.833,8-3.5c4.667-1.667,9.833-3.833,15.5-6.5s9.833-5.333,12.5-8c14-12.667,19-24.333,15-35  c4.667,0,8.333-3,11-9c-0.667,0-2.333-1-5-3s-5.167-3.667-7.5-5s-3.833-2-4.5-2c6-3.333,6.667-8.667,2-16  c3.333-2,5.833-5.667,7.5-11s4.167-8.667,7.5-10c6,8,13,8.667,21,2c4.667-5.333,5-10.667,1-16c3.333-4.667,10.167-8.167,20.5-10.5  s16.5-5.5,18.5-9.5c4.667,1.333,7.333,0.667,8-2s1-6.667,1-12s1-9.333,3-12c2.667-3.333,7.667-6.333,15-9s11.667-4.333,13-5l17-11  c2-2.667,2-4,0-4c12,1.333,22.333-2.333,31-11c6.667-7.333,4.667-14-6-20c2-4,1-7.167-3-9.5s-9-4.167-15-5.5  c2-0.667,5.833-0.833,11.5-0.5s9.167-0.167,10.5-1.5c10-6.667,7.667-12-7-16C1073.667,761.667,1059.333,765.667,1042,777z M879,1654  c137.333-24,254.333-87,351-189c-2-2-6.167-3.5-12.5-4.5s-10.5-2.167-12.5-3.5c-12-4.667-20-7.333-24-8c0.667-4.667-0.167-9-2.5-13  s-5-7-8-9s-7.167-4.667-12.5-8s-9-5.667-11-7c-1.333-1.333-3.667-3.333-7-6s-5.667-4.5-7-5.5s-3.833-2.5-7.5-4.5s-6.5-2.667-8.5-2  s-5.333,1-10,1l-3,1c-2,0.667-3.833,1.5-5.5,2.5s-3.5,2-5.5,3s-3.333,2-4,3s-0.667,1.833,0,2.5c-14-11.333-26-18.667-36-22  c-3.333-0.667-7-2.5-11-5.5s-7.5-5.333-10.5-7s-6.333-2.167-10-1.5c-3.667,0.667-7.5,3-11.5,7c-3.333,3.333-5.333,8.333-6,15  s-1.333,11-2,13c-4.667-3.333-4.667-9.167,0-17.5s5.333-14.5,2-18.5c-2-4-5.5-5.5-10.5-4.5s-9,2.5-12,4.5s-6.833,4.833-11.5,8.5  s-7.667,5.833-9,6.5s-4.167,2.5-8.5,5.5s-7.167,5.5-8.5,7.5c-2,2.667-4,6.667-6,12s-3.667,9-5,11c-1.333-2.667-5.167-4.833-11.5-6.5  s-9.5-3.5-9.5-5.5c1.333,6.667,2.667,18.333,4,35s3,29.333,5,38c4.667,20.667,0.667,36.667-12,48c-18,16.667-27.667,30-29,40  c-2.667,14.667,1.333,23.333,12,26c0,4.667-2.667,11.5-8,20.5s-7.667,16.167-7,21.5C877,1642,877.667,1647.333,879,1654z"/></svg>