<?xml version="1.0" ?><svg clip-rule="evenodd" fill-rule="evenodd" image-rendering="optimizeQuality" shape-rendering="geometricPrecision" text-rendering="geometricPrecision" viewBox="0 0 500 500" xmlns="http://www.w3.org/2000/svg"><defs><style type="text/css"><![CDATA[
    .str1 {stroke:#434242;stroke-width:10;stroke-linejoin:round}
    .str0 {stroke:#434242;stroke-width:20;stroke-linejoin:round}
    .fil0 {fill:none}
    .fil2 {fill:url(#id0)}
    .fil1 {fill:url(#id1)}
   ]]></style><linearGradient gradientUnits="userSpaceOnUse" id="id0" x1="270.576" x2="270.576" y1="440.764" y2="355.062"><stop offset="0" stop-color="#008BFF"/><stop offset="1" stop-color="#0af"/></linearGradient><linearGradient gradientUnits="userSpaceOnUse" id="id1" x1="247.167" x2="247.167" y1="295.248" y2="61.958"><stop offset="0" stop-color="#FCFCFD"/><stop offset="1" stop-color="#fff"/></linearGradient></defs><g id="_1317891088"><path class="fil0 str0" d="M208 59c8 0 15 7 15 15v105c0 10 10 10 10 0v-25c0-9 7-15 15-15s15 6 15 15v40c0 10 10 10 10 0v-25c0-9 7-15 15-15s15 6 15 15v40c0 10 10 10 10 0v-25c0-9 7-15 15-15s15 6 15 15v115c0 10-6 20-14 25-3 2-7 4-11 4-3 1-3 4-2 6l9 21h-102v-26c-9 0-17-4-22-10-2-2-4-5-5-7l-43-75c-4-7-1-16 6-20 5-5 17-1 20 5l14 24v-172c0-8 7-15 15-15z"/><path class="fil1" d="M208 59c8 0 15 7 15 15v105c0 10 10 10 10 0v-25c0-9 7-15 15-15s15 6 15 15v40c0 10 10 10 10 0v-25c0-9 7-15 15-15s15 6 15 15v40c0 10 10 10 10 0v-25c0-9 7-15 15-15s15 6 15 15v115c0 10-6 20-14 25-3 2-7 4-11 4-3 1-3 4-2 6l9 21h-102v-26c-9 0-17-4-22-10-2-2-4-5-5-7l-43-75c-4-7-1-16 6-20 5-5 17-1 20 5l14 24v-172c0-8 7-15 15-15z" id="1"/><path class="fil2 str1" d="M339 441c5 0 10-5 10-10v-66c0-5-5-10-10-10h-128c-6 0-10 5-10 10v76h138z"/></g></svg>