<?xml version="1.0" ?><!DOCTYPE svg  PUBLIC '-//W3C//DTD SVG 1.1//EN'  'http://www.w3.org/Graphics/SVG/1.1/DTD/svg11.dtd'><svg enable-background="new 0 0 96 96" height="96px" id="heart" version="1.1" viewBox="0 0 96 96" width="96px" xml:space="preserve" xmlns="http://www.w3.org/2000/svg" xmlns:xlink="http://www.w3.org/1999/xlink"><path d="M87.598,15.029c-9.373-9.373-24.568-9.373-33.94,0L48,20.686l-5.657-5.656c-9.373-9.373-24.569-9.373-33.941,0  c-9.373,9.373-9.373,24.568,0,33.941l5.657,5.654L48,88.566l33.941-33.941l5.656-5.654C96.971,39.598,96.971,24.402,87.598,15.029z   M70.627,54.627L48,77.254L25.374,54.627L14.061,43.314c-6.249-6.248-6.249-16.379,0-22.629c6.249-6.248,16.379-6.248,22.627,0  L48,32l11.314-11.314c6.248-6.248,16.379-6.248,22.627,0c6.248,6.25,6.248,16.379,0,22.629L70.627,54.627z"/></svg>