<?xml version="1.0" encoding="iso-8859-1"?>
<!-- Generator: Adobe Illustrator 16.0.0, SVG Export Plug-In . SVG Version: 6.00 Build 0)  -->
<!DOCTYPE svg PUBLIC "-//W3C//DTD SVG 1.1//EN" "http://www.w3.org/Graphics/SVG/1.1/DTD/svg11.dtd">
<svg version="1.1" id="Capa_1" xmlns="http://www.w3.org/2000/svg" xmlns:xlink="http://www.w3.org/1999/xlink" x="0px" y="0px"
	 width="338.044px" height="338.045px" viewBox="0 0 338.044 338.045" style="enable-background:new 0 0 338.044 338.045;"
	 xml:space="preserve">
<g>
	<path d="M269.016,0h-99.652c-13.583,0-30.204,9.476-37.122,21.164L59.188,144.599c-6.917,11.688-1.513,21.164,12.07,21.164h73.511
		l-78.183,56.613c-11.007,7.962-8.911,14.423,4.672,14.423h43.061l-49.11,90.049c-6.506,11.919-3.123,14.777,7.551,6.371
		l125.996-99.26c10.664-8.406,8.593-15.469-4.648-15.769c-13.229-0.3-23.962-0.553-23.962-0.553l82.798-75.837
		c10.016-9.176,7.127-16.369-6.456-16.066l-76.342,1.696L276.499,17.666C285.95,7.908,282.599,0,269.016,0z"/>
</g>
<g>
</g>
<g>
</g>
<g>
</g>
<g>
</g>
<g>
</g>
<g>
</g>
<g>
</g>
<g>
</g>
<g>
</g>
<g>
</g>
<g>
</g>
<g>
</g>
<g>
</g>
<g>
</g>
<g>
</g>
</svg>
