<?xml version="1.0" encoding="iso-8859-1"?>
<!-- Generator: Adobe Illustrator 18.1.1, SVG Export Plug-In . SVG Version: 6.00 Build 0)  -->
<svg version="1.1" id="Capa_1" xmlns="http://www.w3.org/2000/svg" xmlns:xlink="http://www.w3.org/1999/xlink" x="0px" y="0px"
	 viewBox="0 0 16.573 16.573" style="enable-background:new 0 0 16.573 16.573;" xml:space="preserve">
<g>
	<g>
		<path style="fill:#030104;" d="M11.103,8.64L9.816,9.342C9.395,9.571,8.971,9.794,8.56,10.038
			c-0.082,0.048-0.161,0.098-0.243,0.146c0.186-0.511,0.379-1.018,0.552-1.531c0.049-0.142,0.097-0.285,0.144-0.427
			C9.261,7.477,9.49,6.721,9.69,5.953C9.21,6.767,8.767,7.596,8.349,8.436c-0.421,0.839-0.823,1.685-1.206,2.539l-0.471,1.048
			l1.062-0.522c0.43-0.211,0.848-0.443,1.27-0.671c0.009-0.005,0.018-0.011,0.027-0.017c-0.078,0.171-0.155,0.341-0.232,0.512
			c-0.167,0.368-0.33,0.738-0.489,1.109c-0.412,0.982-0.812,1.971-1.144,2.994c0.624-0.876,1.18-1.786,1.725-2.702
			c0.536-0.921,1.055-1.849,1.544-2.792L11.103,8.64z"/>
		<path style="fill:#030104;" d="M11.468,1.145c-1.348,0-2.637,0.536-3.59,1.481C7.567,2.543,7.249,2.501,6.931,2.501
			c-1.128,0-2.188,0.506-2.896,1.37C3.937,3.863,3.842,3.859,3.748,3.859C1.681,3.859,0,5.541,0,7.608
			c0,1.934,1.45,3.538,3.373,3.729h2.801l0.158-0.351c0.117-0.26,0.24-0.521,0.361-0.781H3.46c-1.327-0.147-2.324-1.258-2.324-2.598
			c0-1.44,1.171-2.613,2.612-2.613c0.138,0,0.284,0.014,0.446,0.042l0.362,0.063l0.206-0.304c0.66-0.982,1.941-1.417,3.085-0.988
			l0.369,0.138l0.259-0.297c0.756-0.868,1.847-1.367,2.993-1.367c2.188,0,3.969,1.782,3.969,3.97c0,2.083-1.625,3.816-3.703,3.956
			h-0.472c-0.003,0-0.005-0.002-0.008-0.002h-0.198h-0.003h-0.022l-0.174,0.335c-0.136,0.263-0.279,0.53-0.426,0.802h0.622h0.003
			h0.198c0.001,0,0.001-0.001,0.001-0.001l0.515,0.001l0.018-0.001c2.684-0.168,4.785-2.402,4.785-5.089
			C16.572,3.436,14.283,1.145,11.468,1.145z"/>
	</g>
</g>
<g>
</g>
<g>
</g>
<g>
</g>
<g>
</g>
<g>
</g>
<g>
</g>
<g>
</g>
<g>
</g>
<g>
</g>
<g>
</g>
<g>
</g>
<g>
</g>
<g>
</g>
<g>
</g>
<g>
</g>
</svg>
