<?xml version="1.0" ?><svg contentScriptType="text/ecmascript" contentStyleType="text/css" enable-background="new 0 0 2048 2048" height="2048px" id="Layer_1" preserveAspectRatio="xMidYMid meet" version="1.1" viewBox="0.0 0 1664.0 2048" width="1664.0px" xml:space="preserve" xmlns="http://www.w3.org/2000/svg" xmlns:xlink="http://www.w3.org/1999/xlink" zoomAndPan="magnify"><path d="M1152,960c0-123.333-43.833-228.833-131.5-316.5S827.333,512,704,512s-228.833,43.833-316.5,131.5S256,836.667,256,960  s43.833,228.833,131.5,316.5S580.667,1408,704,1408s228.833-43.833,316.5-131.5S1152,1083.333,1152,960z M1664,1792  c0,34.667-12.667,64.667-38,90s-55.333,38-90,38c-36,0-66-12.667-90-38l-343-342c-119.333,82.667-252.333,124-399,124  c-95.333,0-186.5-18.5-273.5-55.5s-162-87-225-150s-113-138-150-225S0,1055.333,0,960s18.5-186.5,55.5-273.5s87-162,150-225  s138-113,225-150S608.667,256,704,256s186.5,18.5,273.5,55.5s162,87,225,150s113,138,150,225S1408,864.667,1408,960  c0,146.667-41.333,279.667-124,399l343,343C1651.667,1726.667,1664,1756.667,1664,1792z"/></svg>