<?xml version="1.0" ?><!DOCTYPE svg  PUBLIC '-//W3C//DTD SVG 1.1//EN'  'http://www.w3.org/Graphics/SVG/1.1/DTD/svg11.dtd'><svg enable-background="new 0 0 96 96" height="96px" id="move" version="1.1" viewBox="0 0 96 96" width="96px" xml:space="preserve" xmlns="http://www.w3.org/2000/svg" xmlns:xlink="http://www.w3.org/1999/xlink"><path d="M94.828,45.171L80.687,31.029c-1.562-1.562-4.095-1.562-5.657,0c-1.562,1.562-1.562,4.095,0,5.657L82.344,44H52V13.657  l7.313,7.313c1.562,1.562,4.095,1.562,5.657,0c1.562-1.562,1.562-4.095,0-5.657L50.828,1.171c-1.562-1.562-4.095-1.562-5.657,0  L31.029,15.314c-1.562,1.562-1.562,4.095,0,5.657s4.095,1.562,5.657,0L44,13.657V44H13.657l7.313-7.313  c1.562-1.562,1.562-4.095,0-5.657s-4.095-1.562-5.657,0L1.171,45.171c-1.562,1.562-1.562,4.095,0,5.657l14.143,14.143  c1.562,1.562,4.095,1.562,5.657,0c1.562-1.562,1.562-4.095,0-5.657L13.657,52H44v30.344l-7.313-7.314  c-1.562-1.562-4.095-1.562-5.657,0c-1.562,1.562-1.562,4.095,0,5.657l14.142,14.142c1.562,1.562,4.095,1.562,5.657,0l14.143-14.142  c1.562-1.562,1.562-4.095,0-5.657c-1.562-1.562-4.095-1.562-5.657,0L52,82.343V52h30.343l-7.313,7.313  c-1.562,1.562-1.562,4.095,0,5.657c1.562,1.562,4.095,1.562,5.657,0l14.142-14.143C96.391,49.267,96.391,46.733,94.828,45.171z"/></svg>