<?xml version="1.0" encoding="iso-8859-1"?>
<!-- Generator: Adobe Illustrator 18.0.0, SVG Export Plug-In . SVG Version: 6.00 Build 0)  -->
<!DOCTYPE svg PUBLIC "-//W3C//DTD SVG 1.1//EN" "http://www.w3.org/Graphics/SVG/1.1/DTD/svg11.dtd">
<svg version="1.1" id="Capa_1" xmlns="http://www.w3.org/2000/svg" xmlns:xlink="http://www.w3.org/1999/xlink" x="0px" y="0px"
	 viewBox="0 0 343.956 343.956" style="enable-background:new 0 0 343.956 343.956;" xml:space="preserve">
<path d="M343.693,196.688c-4.175-16.256-12.665-31.13-24.573-43.036c-16.033-16.032-36.837-25.56-59.211-27.264
	c-0.774-1.483-1.586-2.943-2.433-4.38c5.479-11.923,8.54-25.178,8.54-39.136c0-16.997-4.595-33.665-13.287-48.2
	c-1.204-2.012-3.75-2.763-5.852-1.727c-2.102,1.037-3.058,3.513-2.195,5.692c3.638,9.191,5.482,18.866,5.482,28.755
	c0,12.446-2.937,24.213-8.132,34.669c-17.954-17.943-42.735-29.056-70.064-29.056s-52.11,11.112-70.064,29.056
	c-5.194-10.456-8.131-22.223-8.131-34.668c0-9.889,1.845-19.565,5.483-28.759c0.863-2.179-0.092-4.656-2.195-5.692
	c-2.101-1.036-4.648-0.285-5.851,1.726c-8.695,14.537-13.29,31.206-13.29,48.205c0,13.958,3.061,27.213,8.54,39.137
	c-0.847,1.437-1.658,2.897-2.433,4.379c-22.374,1.704-43.178,11.231-59.212,27.264c-12.01,12.011-20.544,27.038-24.68,43.458
	c-0.572,2.273,0.696,4.605,2.915,5.359c2.217,0.755,4.646-0.32,5.578-2.472c3.924-9.06,9.459-17.199,16.449-24.19
	c13.411-13.412,30.84-21.329,49.569-22.676c-1.203,6.163-1.84,12.525-1.84,19.035c0,46.772,32.552,86.079,76.19,96.469
	c-3.534,6.439-7.991,12.42-13.329,17.758c-6.995,6.993-15.139,12.529-24.207,16.454c-2.151,0.931-3.228,3.358-2.473,5.578
	c0.632,1.86,2.373,3.053,4.258,3.053c0.364,0,0.733-0.044,1.101-0.137c16.426-4.135,31.459-12.671,43.474-24.685
	c4.761-4.761,8.889-9.915,12.414-15.351c0.577,0.01,1.153,0.022,1.732,0.022c0.567,0,1.132-0.012,1.697-0.021
	c3.563,5.476,7.72,10.622,12.448,15.35c12.018,12.018,27.052,20.554,43.476,24.687c0.367,0.092,0.736,0.137,1.1,0.137
	c1.886,0,3.627-1.193,4.259-3.054c0.754-2.219-0.322-4.646-2.473-5.577c-9.068-3.925-17.212-9.461-24.206-16.455
	c-5.338-5.338-9.796-11.319-13.33-17.758c43.637-10.39,76.189-49.697,76.189-96.469c0-6.509-0.637-12.872-1.84-19.035
	c18.73,1.347,36.158,9.264,49.569,22.676c6.991,6.99,12.525,15.129,16.449,24.19c0.757,1.749,2.511,2.798,4.323,2.708
	c2.405-0.091,4.327-2.069,4.327-4.497C343.956,197.675,343.863,197.163,343.693,196.688z M154.823,255.087
	c-38.494-7.949-67.522-42.107-67.522-82.92c0-6.437,0.746-12.699,2.113-18.729c17.465,1.999,33.638,9.753,46.255,22.37
	c1.06,1.06,2.075,2.151,3.066,3.259c1.074,10.147,6.691,18.938,14.778,24.306c3.311,8.744,5.06,18.099,5.06,27.728
	C158.574,239.369,157.279,247.435,154.823,255.087z M171.97,142.089c-4.463,0-8.718,0.882-12.611,2.469
	c-20.118-3.277-37.676-14.253-49.551-29.8c15.479-16.748,37.612-30.26,62.162-30.26s46.683,13.512,62.162,30.26
	c-11.875,15.547-29.434,26.523-49.551,29.799C180.688,142.971,176.432,142.089,171.97,142.089z M189.117,255.087
	c-2.457-7.652-3.751-15.717-3.751-23.986c0-9.629,1.749-18.985,5.061-27.729c8.086-5.368,13.702-14.158,14.776-24.304
	c0.991-1.109,2.007-2.201,3.067-3.261c12.616-12.617,28.789-20.371,46.254-22.37c1.367,6.029,2.113,12.292,2.113,18.729
	C256.637,212.979,227.61,247.138,189.117,255.087z"/>
<g>
</g>
<g>
</g>
<g>
</g>
<g>
</g>
<g>
</g>
<g>
</g>
<g>
</g>
<g>
</g>
<g>
</g>
<g>
</g>
<g>
</g>
<g>
</g>
<g>
</g>
<g>
</g>
<g>
</g>
</svg>
