<?xml version="1.0" encoding="iso-8859-1"?>
<!-- Generator: Adobe Illustrator 18.1.1, SVG Export Plug-In . SVG Version: 6.00 Build 0)  -->
<svg version="1.1" id="Capa_1" xmlns="http://www.w3.org/2000/svg" xmlns:xlink="http://www.w3.org/1999/xlink" x="0px" y="0px"
	 viewBox="0 0 611.999 611.999" style="enable-background:new 0 0 611.999 611.999;" xml:space="preserve">
<g>
	<path id="Fax_1_" d="M587.02,125.52c-24.98,0-49.959,0-74.939,0c0-22.482,0-44.963,0-67.445c0-13.796-11.183-24.98-24.98-24.98
		c-120.735,0-241.469,0-362.204,0c-13.796,0-24.98,11.183-24.98,24.98c0,22.482,0,44.963,0,67.445c-24.98,0-49.959,0-74.939,0
		C11.183,125.52,0,136.704,0,150.5c0,81.6,0,163.2,0,244.8c0,13.796,11.183,24.98,24.98,24.98c24.98,0,49.959,0,74.939,0
		c0,29.496,0,58.992,0,88.489c0,14.386,0,28.771,0,43.157c0,8.328,1.684,14.541,8.121,20.428c2.998,2.742,6.199,4.52,10.109,5.618
		c3.621,1.015,7.2,0.929,10.86,0.929c58.997,0,117.994,0,176.99,0s117.994,0,176.99,0c3.662,0,7.244,0.086,10.867-0.93
		c3.913-1.099,7.117-2.881,10.114-5.627c6.438-5.895,8.11-12.118,8.11-20.447c0-14.393,0-28.788,0-43.181
		c0-29.478,0-58.957,0-88.435c24.98,0,49.959,0,74.939,0c13.796,0,24.98-11.183,24.98-24.98c0-81.6,0-163.2,0-244.8
		C612,136.705,600.817,125.52,587.02,125.52z M62.449,213.573c-12.071,0-21.857-9.786-21.857-21.857s9.786-21.857,21.857-21.857
		s21.857,9.786,21.857,21.857S74.52,213.573,62.449,213.573z M487.102,553.92H124.898V356.582h362.204V553.92z M487.102,125.52
		c-120.735,0-241.469,0-362.204,0c0-14.155,0-28.311,0-42.465c0-13.796,11.183-24.98,24.98-24.98c104.081,0,208.164,0,312.245,0
		c13.796,0,24.98,11.183,24.98,24.98C487.102,97.211,487.102,111.366,487.102,125.52z"/>
</g>
<g>
</g>
<g>
</g>
<g>
</g>
<g>
</g>
<g>
</g>
<g>
</g>
<g>
</g>
<g>
</g>
<g>
</g>
<g>
</g>
<g>
</g>
<g>
</g>
<g>
</g>
<g>
</g>
<g>
</g>
</svg>
