<?xml version="1.0" encoding="iso-8859-1"?>
<!-- Generator: Adobe Illustrator 18.0.0, SVG Export Plug-In . SVG Version: 6.00 Build 0)  -->
<!DOCTYPE svg PUBLIC "-//W3C//DTD SVG 1.1//EN" "http://www.w3.org/Graphics/SVG/1.1/DTD/svg11.dtd">
<svg version="1.1" id="Capa_1" xmlns="http://www.w3.org/2000/svg" xmlns:xlink="http://www.w3.org/1999/xlink" x="0px" y="0px"
	 viewBox="0 0 329.562 329.562" style="enable-background:new 0 0 329.562 329.562;" xml:space="preserve">
<g>
	<path d="M326.174,272.923l-139.5-241.568c-4.516-7.821-12.861-12.638-21.893-12.638c-9.031,0-17.377,4.816-21.893,12.638
		L3.388,272.923c-4.518,7.821-4.518,17.46-0.002,25.282c4.516,7.822,12.862,12.641,21.895,12.641h279
		c9.031,0,17.379-4.818,21.895-12.641C330.691,290.383,330.691,280.744,326.174,272.923z M25.281,285.565l139.5-241.568
		l139.5,241.568H25.281z"/>
	<path d="M179.373,224.693c0.058,2.568,0.561,5.057,1.484,7.376c10.517-5.526,17.788-16.413,18.166-29.007
		c-2.544,0.181-4.995,0.811-7.27,1.848C190.86,213.24,186.131,220.433,179.373,224.693z"/>
	<path d="M150.214,224.249c-6.293-4.242-10.687-11.087-11.643-18.978c-2.275-1.15-4.742-1.891-7.314-2.16
		c0.387,12.332,7.382,23.023,17.561,28.638C149.733,229.338,150.208,226.797,150.214,224.249z"/>
	<path d="M153.84,177.772c3.436-1.606,7.264-2.51,11.3-2.51c3.876,0,7.56,0.835,10.889,2.323c2.174-1.367,4.077-3.114,5.626-5.153
		c-4.891-2.739-10.522-4.309-16.515-4.309c-6.2,0-12.011,1.681-17.017,4.597C149.706,174.732,151.643,176.441,153.84,177.772z"/>
	<path d="M176.411,137.556c8.333,4.266,13.512,12.729,13.512,22.076c0,13.665-11.119,24.781-24.782,24.781
		c-13.67,0-24.781-11.116-24.781-24.781c0-9.348,5.17-17.811,13.51-22.076c1.281-0.651,1.814-2.209,1.206-3.514
		c-0.609-1.303-2.145-1.894-3.471-1.336c-12.918,5.459-21.271,18.053-21.271,32.08c0,7.998,2.717,15.383,7.275,21.266
		c-1.513-0.193-3.048-0.299-4.597-0.299c-9.293,0-18.039,3.622-24.608,10.191c-9.921,9.922-12.919,24.727-7.638,37.722
		c0.537,1.337,2.038,1.999,3.39,1.506c1.358-0.489,2.081-1.968,1.638-3.337c-2.881-8.904-0.559-18.553,6.055-25.162
		c4.686-4.676,10.906-7.254,17.521-7.254c6.626,0,12.847,2.578,17.526,7.254c9.663,9.664,9.664,25.387,0.001,35.047
		c-4.681,4.684-10.9,7.262-17.526,7.262c-2.602,0-5.168-0.406-7.637-1.205c-1.373-0.444-2.85,0.279-3.336,1.637
		c-0.492,1.347,0.168,2.851,1.505,3.391c4.173,1.699,8.59,2.553,13.11,2.553c9.293,0,18.04-3.619,24.611-10.191
		c3.318-3.318,5.819-7.152,7.518-11.24c1.691,4.088,4.192,7.922,7.518,11.24c6.569,6.572,15.311,10.192,24.604,10.191
		c4.529,0,8.938-0.854,13.115-2.553c1.332-0.54,1.996-2.044,1.508-3.391c-0.492-1.357-1.966-2.08-3.338-1.637
		c-2.473,0.799-5.039,1.205-7.641,1.205c-6.621,0-12.848-2.578-17.521-7.262c-9.663-9.66-9.662-25.383,0-35.045
		c4.675-4.678,10.902-7.256,17.521-7.256c6.617,0,12.844,2.578,17.52,7.254c6.613,6.609,8.938,16.258,6.057,25.162
		c-0.438,1.369,0.279,2.848,1.637,3.337c1.355,0.493,2.855-0.168,3.395-1.506c5.275-12.995,2.279-27.8-7.636-37.722
		c-6.575-6.569-15.317-10.191-24.616-10.191c-1.549,0-3.084,0.105-4.596,0.299c4.559-5.883,7.275-13.268,7.275-21.266
		c0-14.027-8.349-26.621-21.266-32.08c-1.332-0.559-2.863,0.033-3.471,1.336C174.596,135.347,175.13,136.905,176.411,137.556z
		 M165.14,207.188c-1.152-2.783-2.688-5.444-4.594-7.907c1.5,0.203,3.035,0.305,4.594,0.305c1.552,0,3.088-0.102,4.586-0.305
		C167.822,201.744,166.29,204.405,165.14,207.188z"/>
</g>
<g>
</g>
<g>
</g>
<g>
</g>
<g>
</g>
<g>
</g>
<g>
</g>
<g>
</g>
<g>
</g>
<g>
</g>
<g>
</g>
<g>
</g>
<g>
</g>
<g>
</g>
<g>
</g>
<g>
</g>
</svg>
