<?xml version="1.0" ?><!DOCTYPE svg  PUBLIC '-//W3C//DTD SVG 1.1//EN'  'http://www.w3.org/Graphics/SVG/1.1/DTD/svg11.dtd'><svg enable-background="new 0 0 500 500" height="500px" id="Layer_1" version="1.1" viewBox="0 0 500 500" width="500px" xml:space="preserve" xmlns="http://www.w3.org/2000/svg" xmlns:xlink="http://www.w3.org/1999/xlink"><path clip-rule="evenodd" d="M250,41.034c-8.091,0-14.808,5.448-16.902,12.901l-42.882,132.467  H49.392c-9.724,0-17.442,8.456-17.442,18.26c0,5.999,2.997,11.357,7.54,14.542c2.814,1.907,113.747,82.948,113.747,82.948  s-42.605,130.835-43.431,132.921c-0.63,1.907-1.083,4.001-1.083,6.175c0,9.813,7.897,17.718,17.622,17.718  c3.726,0,7.178-1.181,10.087-3.175L250,373.106c0,0,111.023,80.865,113.569,82.685c2.899,1.994,6.361,3.175,10.078,3.175  c9.725,0,17.63-7.994,17.63-17.718c0-2.174-0.45-4.268-1.092-6.175c-0.815-2.086-43.421-132.921-43.421-132.921  s110.924-81.041,113.744-82.948c4.543-3.185,7.542-8.543,7.542-14.63c0-9.717-7.542-18.172-17.267-18.172H309.961L266.892,53.935  C264.81,46.482,258.081,41.034,250,41.034z" fill="#010101" fill-rule="evenodd"/></svg>