<?xml version="1.0" ?><!DOCTYPE svg  PUBLIC '-//W3C//DTD SVG 1.1//EN'  'http://www.w3.org/Graphics/SVG/1.1/DTD/svg11.dtd'><svg enable-background="new 0 0 64 64" height="64px" id="Layer_1" version="1.1" viewBox="0 0 64 64" width="64px" xml:space="preserve" xmlns="http://www.w3.org/2000/svg" xmlns:xlink="http://www.w3.org/1999/xlink"><g id="star_1_"><g><g><polygon fill="#37474F" points="22.436,18.595 22.012,14.7 25.173,17.015 25.586,16.078 20.771,12.554 21.417,18.484    "/><polygon fill="#37474F" points="38.827,17.014 41.987,14.7 41.563,18.595 42.583,18.484 43.228,12.554 38.414,16.077    "/><polygon fill="#37474F" points="51.976,32 48.392,33.58 48.997,34.406 54.454,32 48.997,29.594 48.392,30.42    "/><polygon fill="#37474F" points="15.608,30.42 15.004,29.594 9.546,32 15.003,34.406 15.608,33.58 12.024,32    "/><polygon fill="#37474F" points="41.564,45.405 41.988,49.299 38.827,46.985 38.414,47.922 43.229,51.445 42.583,45.516    "/><polygon fill="#37474F" points="25.173,46.985 22.012,49.299 22.436,45.405 21.417,45.516 20.771,51.445 25.586,47.922    "/></g><path d="M32,59.99l-6.997-15.87L7.76,45.995L18.004,32L7.76,18.004l17.243,1.876L32,4.009l6.997,15.871    l17.243-1.876L45.996,32L56.24,45.995L38.997,44.12L32,59.99z M25.622,43.046L32,57.512l6.378-14.466l15.716,1.709L44.756,32    l9.338-12.756l-15.716,1.71L32,6.487l-6.378,14.467l-15.716-1.71L19.244,32L9.906,44.755L25.622,43.046z" fill="#37474F"/></g><g><path d="M32,46.288l-3.571-8.102l-8.803,0.956L24.855,32l-5.229-7.146l8.803,0.959L32,17.71l3.571,8.103    l8.803-0.959L39.145,32l5.229,7.143l-8.803-0.956L32,46.288z M29.048,37.114L32,43.81l2.952-6.695l7.275,0.79L37.906,32    l4.321-5.906l-7.275,0.793L32,20.188l-2.952,6.698l-7.275-0.793L26.094,32l-4.321,5.904L29.048,37.114z" fill="#37474F"/></g><g><g><rect fill="#37474F" height="2.001" transform="matrix(-0.9783 -0.207 0.207 -0.9783 72.6408 20.7372)" width="1" x="36.905" y="5.568"/><rect fill="#37474F" height="1.998" transform="matrix(-0.9781 -0.2079 0.2079 -0.9781 40.6646 119.1377)" width="1" x="26.094" y="56.433"/></g><g><rect fill="#37474F" height="2" transform="matrix(-0.9138 -0.4061 0.4061 -0.9138 78.1303 33.0755)" width="1" x="42.075" y="7.248"/><rect fill="#37474F" height="1.999" transform="matrix(-0.9134 -0.407 0.407 -0.9134 18.3068 115.3974)" width="1.001" x="20.924" y="54.753"/></g><g><rect fill="#37474F" height="2" transform="matrix(-0.8092 -0.5876 0.5876 -0.8092 79.097 47.6203)" width="1.001" x="46.781" y="9.965"/><rect fill="#37474F" height="1.999" transform="matrix(-0.8087 -0.5882 0.5882 -0.8087 -0.9598 105.7562)" width="1.001" x="16.217" y="52.035"/></g><g><rect fill="#37474F" height="2" transform="matrix(-0.6696 -0.7428 0.7428 -0.6696 74.838 62.4984)" width="1.001" x="50.821" y="13.602"/><rect fill="#37474F" height="1.999" transform="matrix(-0.6691 -0.7432 0.7432 -0.6691 -15.5516 91.8692)" width="1.001" x="12.177" y="48.397"/></g><g><rect fill="#37474F" height="2" transform="matrix(-0.3092 -0.951 0.951 -0.3092 51.4768 85.3214)" width="1.001" x="56.226" y="22.964"/><rect fill="#37474F" height="1.999" transform="matrix(-0.3092 -0.951 0.951 -0.3092 -28.5509 59.3281)" width="1.001" x="6.772" y="39.034"/></g><g><rect fill="#37474F" height="2" transform="matrix(-0.1044 -0.9945 0.9945 -0.1044 34.7784 89.8802)" width="1.001" x="57.357" y="28.281"/><rect fill="#37474F" height="2" transform="matrix(-0.1054 -0.9944 0.9944 -0.1054 -27.7345 44.4842)" width="1.001" x="5.642" y="33.717"/></g><g><rect fill="#37474F" height="2" transform="matrix(0.1044 -0.9945 0.9945 0.1044 17.2884 88.6324)" width="1.001" x="57.357" y="33.717"/><rect fill="#37474F" height="1.999" transform="matrix(0.1054 -0.9944 0.9944 0.1054 -23.6235 32.3039)" width="1.001" x="5.642" y="28.282"/></g><g><rect fill="#37474F" height="2.001" transform="matrix(0.3083 -0.9513 0.9513 0.3083 1.1542 81.6548)" width="1.001" x="56.227" y="39.033"/><rect fill="#37474F" height="1.999" transform="matrix(0.3095 -0.9509 0.9509 0.3095 -17.767 23.4639)" width="1" x="6.772" y="22.966"/></g><g><rect fill="#37474F" height="2" transform="matrix(0.6685 -0.7437 0.7437 0.6685 -19.7242 54.5406)" width="1.001" x="50.821" y="48.397"/><rect fill="#37474F" height="1.999" transform="matrix(0.67 -0.7423 0.7423 0.67 -6.6565 14.2295)" width="1" x="12.178" y="13.603"/></g><g><rect fill="#37474F" height="2" transform="matrix(0.8084 -0.5887 0.5887 0.8084 -22.1595 37.9985)" width="1" x="46.782" y="52.034"/><rect fill="#37474F" height="2" transform="matrix(0.8092 -0.5876 0.5876 0.8092 -3.2527 11.9159)" width="1.001" x="16.218" y="9.966"/></g><g><rect fill="#37474F" height="2" transform="matrix(0.9133 -0.4073 0.4073 0.9133 -19.0169 22.176)" width="1" x="42.075" y="54.752"/><rect fill="#37474F" height="2.001" transform="matrix(0.9134 -0.407 0.407 0.9134 -1.502 9.4329)" width="1.001" x="20.925" y="7.247"/></g><g><rect fill="#37474F" height="2" transform="matrix(0.9781 -0.2081 0.2081 0.9781 -11.134 9.0428)" width="0.999" x="36.906" y="56.432"/><rect fill="#37474F" height="2.001" transform="matrix(0.9781 -0.2079 0.2079 0.9781 -0.7844 5.6733)" width="1" x="26.094" y="5.568"/></g></g><g><g><g><path d="M46.724,25.5c-0.713,0-1.378-0.384-1.733-1c-0.551-0.956-0.223-2.181,0.732-2.731      c0.922-0.535,2.201-0.188,2.731,0.731c0.552,0.955,0.224,2.18-0.731,2.731C47.419,25.407,47.073,25.5,46.724,25.5z M46.721,22.5      c-0.174,0-0.346,0.047-0.498,0.134c-0.478,0.275-0.642,0.889-0.366,1.366c0.265,0.46,0.902,0.629,1.366,0.366      C47.7,24.09,47.864,23.478,47.589,23C47.41,22.691,47.078,22.5,46.721,22.5z" fill="#37474F"/></g><g><path d="M17.279,42.5c-0.713,0-1.378-0.383-1.733-1c-0.552-0.955-0.224-2.18,0.731-2.731      c0.922-0.535,2.202-0.188,2.732,0.731c0.551,0.956,0.223,2.181-0.732,2.731C17.974,42.407,17.629,42.5,17.279,42.5z       M17.276,39.5c-0.175,0-0.347,0.047-0.499,0.134C16.3,39.91,16.136,40.522,16.411,41c0.266,0.458,0.901,0.632,1.366,0.366      c0.478-0.275,0.642-0.889,0.366-1.366C17.966,39.691,17.633,39.5,17.276,39.5z" fill="#37474F"/></g></g><g><g><path d="M46.721,42.5c-0.35,0-0.694-0.093-0.998-0.269c-0.463-0.267-0.794-0.698-0.932-1.214      c-0.139-0.517-0.067-1.056,0.2-1.518c0.529-0.919,1.809-1.266,2.731-0.731c0.955,0.552,1.283,1.776,0.731,2.731      C48.099,42.117,47.434,42.5,46.721,42.5z M46.725,39.5c-0.357,0-0.689,0.191-0.868,0.5c-0.133,0.231-0.169,0.501-0.1,0.759      s0.234,0.474,0.466,0.607c0.466,0.267,1.102,0.093,1.366-0.366c0.275-0.478,0.111-1.09-0.366-1.366      C47.07,39.547,46.898,39.5,46.725,39.5z" fill="#37474F"/></g><g><path d="M17.275,25.5c-0.349,0-0.694-0.093-0.998-0.269c-0.955-0.552-1.283-1.776-0.731-2.731      c0.529-0.92,1.808-1.267,2.731-0.731c0.463,0.267,0.794,0.698,0.932,1.214c0.139,0.517,0.067,1.056-0.2,1.518      C18.653,25.117,17.988,25.5,17.275,25.5z M17.279,22.5c-0.357,0-0.689,0.191-0.868,0.5c-0.275,0.478-0.111,1.09,0.366,1.366      c0.467,0.267,1.102,0.093,1.366-0.366c0.133-0.231,0.169-0.501,0.1-0.759s-0.234-0.474-0.466-0.607      C17.625,22.547,17.453,22.5,17.279,22.5z" fill="#37474F"/></g></g><g><g><path d="M32,51c-1.103,0-2-0.897-2-2s0.897-2,2-2s2,0.897,2,2S33.103,51,32,51z M32,48c-0.552,0-1,0.448-1,1      s0.448,1,1,1s1-0.448,1-1S32.552,48,32,48z" fill="#37474F"/></g><g><path d="M32,17c-1.103,0-2-0.897-2-2s0.897-2,2-2s2,0.897,2,2S33.103,17,32,17z M32,14c-0.552,0-1,0.448-1,1      s0.448,1,1,1s1-0.448,1-1S32.552,14,32,14z" fill="#37474F"/></g></g></g></g></svg>