<?xml version="1.0" ?><!DOCTYPE svg  PUBLIC '-//W3C//DTD SVG 1.1//EN'  'http://www.w3.org/Graphics/SVG/1.1/DTD/svg11.dtd'><svg enable-background="new 0 0 500 500" height="500px" id="Layer_1" version="1.1" viewBox="0 0 500 500" width="500px" xml:space="preserve" xmlns="http://www.w3.org/2000/svg" xmlns:xlink="http://www.w3.org/1999/xlink"><path clip-rule="evenodd" d="M31.949,431.711c0,20.079,16.264,36.341,36.34,36.341h363.421  c20.078,0,36.34-16.262,36.34-36.341V177.317c0-20.079-16.262-36.342-36.34-36.342H272.44l70.954-70.958  c8.731-8.721,8.731-22.803,0-31.524c-8.725-8.728-22.804-8.728-31.519,0L209.292,140.975h-0.443l-75.24-75.226  c-8.713-8.727-22.801-8.727-31.514,0c-8.731,8.722-8.731,22.804,0,31.524l43.6,43.702H68.29c-20.077,0-36.34,16.264-36.34,36.342  V431.711z M97.367,186.401h223.5c11.081,0,19.986,8.905,19.986,19.991v196.241c0,11.084-8.905,19.991-19.986,19.991h-223.5  c-11.083,0-19.991-8.907-19.991-19.991V206.393C77.375,195.307,86.284,186.401,97.367,186.401z M377.198,209.117  c0-12.539,10.175-22.716,22.711-22.716c12.54,0,22.715,10.177,22.715,22.716c0,12.536-10.175,22.713-22.715,22.713  C387.373,231.83,377.198,221.653,377.198,209.117z M377.198,281.798c0-12.535,10.175-22.711,22.711-22.711  c12.54,0,22.715,10.176,22.715,22.711c0,12.541-10.175,22.715-22.715,22.715C387.373,304.513,377.198,294.339,377.198,281.798z" fill="#010101" fill-rule="evenodd"/></svg>