<?xml version="1.0" ?><!DOCTYPE svg  PUBLIC '-//W3C//DTD SVG 1.1//EN'  'http://www.w3.org/Graphics/SVG/1.1/DTD/svg11.dtd'><svg enable-background="new 0 0 96 96" height="96px" id="video" version="1.1" viewBox="0 0 96 96" width="96px" xml:space="preserve" xmlns="http://www.w3.org/2000/svg" xmlns:xlink="http://www.w3.org/1999/xlink"><path d="M68,39.27V32c0-6.63-5.37-12-12-12H12C5.37,20,0,25.37,0,32v32c0,6.63,5.37,12,12,12h44c6.63,0,12-5.37,12-12v-7.09L96,72.5  V24L68,39.27z M60,64c0,2.21-1.79,4-4,4H12c-2.21,0-4-1.79-4-4V32c0-2.21,1.79-4,4-4h44c2.21,0,4,1.79,4,4V64z M88,58.891  L68.57,48.071L88,37.481V58.891z"/></svg>