<?xml version="1.0" encoding="iso-8859-1"?>
<!-- Generator: Adobe Illustrator 18.0.0, SVG Export Plug-In . SVG Version: 6.00 Build 0)  -->
<!DOCTYPE svg PUBLIC "-//W3C//DTD SVG 1.1//EN" "http://www.w3.org/Graphics/SVG/1.1/DTD/svg11.dtd">
<svg version="1.1" id="Capa_1" xmlns="http://www.w3.org/2000/svg" xmlns:xlink="http://www.w3.org/1999/xlink" x="0px" y="0px"
	 viewBox="0 0 297 297" style="enable-background:new 0 0 297 297;" xml:space="preserve">
<g>
	<path d="M277.049,74.282c-19.824-34.336-51.833-58.899-90.131-69.161c-38.299-10.261-78.3-4.995-112.636,14.83
		C39.946,39.775,15.383,71.784,5.121,110.082c-10.261,38.298-4.995,78.299,14.83,112.636c19.824,34.336,51.833,58.899,90.131,69.161
		c12.788,3.426,25.765,5.121,38.659,5.121c25.72,0,51.107-6.747,73.977-19.951c34.336-19.824,58.899-51.833,69.161-90.131
		C302.14,148.62,296.874,108.619,277.049,74.282z M272.694,181.778c-8.888,33.173-30.164,60.899-59.906,78.071
		c-29.743,17.171-64.392,21.734-97.566,12.845c-33.173-8.888-60.899-30.164-78.071-59.906s-21.733-64.392-12.845-97.566
		c8.888-33.173,30.164-60.899,59.906-78.071c19.812-11.438,41.799-17.281,64.079-17.281c11.167,0,22.411,1.468,33.487,4.437
		c33.173,8.888,60.899,30.164,78.071,59.906S281.583,148.605,272.694,181.778z"/>
	<path d="M185.618,138.725c-0.863-3.255-2.153-6.419-3.882-9.413c-1.729-2.995-3.824-5.694-6.212-8.068l35.311-61.161
		c1.319-2.285,1.675-5,0.989-7.547c-0.686-2.548-2.357-4.717-4.644-6.03c-36.286-20.835-81.314-20.796-117.57,0.137l-0.227,0.136
		c-4.734,2.748-6.351,8.811-3.613,13.552l35.366,61.255c-4.609,4.671-7.961,10.472-9.706,16.982
		c-0.014,0.053-0.024,0.105-0.038,0.158H40.757c-2.635,0-5.161,1.047-7.023,2.91c-1.863,1.863-2.908,4.39-2.907,7.025
		c0.01,20.518,5.466,40.806,15.779,58.669c10.312,17.861,25.153,32.73,42.918,42.998c1.524,0.882,3.24,1.333,4.97,1.333
		c0.86,0,1.723-0.112,2.568-0.337c2.545-0.682,4.715-2.346,6.032-4.628l35.317-61.171c0.052,0.014,0.103,0.032,0.156,0.046
		c3.307,0.885,6.662,1.324,9.996,1.324c3.231,0,6.44-0.42,9.566-1.235l35.363,61.252c1.319,2.285,3.479,3.959,6.028,4.638
		c0.847,0.225,1.709,0.337,2.568,0.337c1.728,0,3.439-0.452,4.963-1.336l0.277-0.156c36.195-20.897,58.742-59.872,58.841-101.716
		c0.006-2.638-1.038-5.17-2.901-7.037c-1.863-1.868-4.392-2.917-7.03-2.917H185.618z M188.403,59.215l-30.125,52.178
		c-6.675-1.758-13.545-1.694-20.029,0.114l-30.077-52.095C133.575,47.936,162.916,47.872,188.403,59.215z M91.118,227.716
		c-11.075-8.026-20.411-18.364-27.312-30.318c-6.902-11.954-11.187-25.209-12.6-38.813h60.257c0.862,3.146,2.127,6.204,3.802,9.103
		c1.674,2.9,3.69,5.524,5.983,7.843L91.118,227.716z M143.707,166.386c-4.777-1.281-8.771-4.345-11.243-8.628
		s-3.13-9.273-1.85-14.051c1.281-4.777,4.345-8.771,8.628-11.243c2.853-1.648,6.019-2.488,9.228-2.488
		c1.608,0,3.227,0.211,4.823,0.638c4.777,1.281,8.771,4.345,11.243,8.628s3.13,9.273,1.85,14.051
		c-1.281,4.777-4.345,8.771-8.628,11.243C153.476,167.009,148.486,167.664,143.707,166.386z M205.491,227.973l-30.079-52.099
		c4.808-4.711,8.299-10.628,10.113-17.289h60.25C242.853,186.34,228.116,211.725,205.491,227.973z"/>
</g>
<g>
</g>
<g>
</g>
<g>
</g>
<g>
</g>
<g>
</g>
<g>
</g>
<g>
</g>
<g>
</g>
<g>
</g>
<g>
</g>
<g>
</g>
<g>
</g>
<g>
</g>
<g>
</g>
<g>
</g>
</svg>
