<?xml version="1.0" ?><svg height="100" id="svg6584" version="1.1" width="100" xmlns="http://www.w3.org/2000/svg" xmlns:cc="http://creativecommons.org/ns#" xmlns:dc="http://purl.org/dc/elements/1.1/" xmlns:inkscape="http://www.inkscape.org/namespaces/inkscape" xmlns:rdf="http://www.w3.org/1999/02/22-rdf-syntax-ns#" xmlns:sodipodi="http://sodipodi.sourceforge.net/DTD/sodipodi-0.dtd" xmlns:svg="http://www.w3.org/2000/svg"><defs id="defs6586"/><path d="m 50,12.499999 c -3.4625,0 -6.25,2.7875 -6.25,6.25 l 0,14.583334 -14.583333,0 c -3.462918,-4.17e-4 -6.249875,2.7875 -6.25,6.25 -4.58e-4,3.462083 2.787124,6.249583 6.25,6.25 l 14.583333,0 0,35.416667 c -8.76e-4,3.462083 2.787416,6.25 6.25,6.25 3.462041,8.33e-4 6.249583,-2.786667 6.25,-6.25 l 0,-35.416667 14.583333,0 c 3.462875,-4.17e-4 6.250458,-2.787917 6.25,-6.25 -1.25e-4,-3.4625 -2.787083,-6.250417 -6.25,-6.25 l -14.583333,0 0,-14.583334 c 0,-3.4625 -2.7875,-6.25 -6.25,-6.25 z" id="rect7432-3" style="color:#000000;fill:#000000;fill-opacity:1;fill-rule:nonzero;stroke:none;stroke-width:2;marker:none;visibility:visible;display:inline;overflow:visible;enable-background:accumulate"/></svg>