<?xml version="1.0" encoding="UTF-8" standalone="no"?>
<!-- Created with Inkscape (http://www.inkscape.org/) -->
<svg id="svg2" xmlns:rdf="http://www.w3.org/1999/02/22-rdf-syntax-ns#" xmlns="http://www.w3.org/2000/svg" height="56.444mm" width="54.092mm" version="1.1" xmlns:cc="http://creativecommons.org/ns#" xmlns:dc="http://purl.org/dc/elements/1.1/" viewBox="0 0 191.66464 200.00001">
 <metadata id="metadata7">
  <rdf:RDF>
   <cc:Work rdf:about="">
    <dc:format>image/svg+xml</dc:format>
    <dc:type rdf:resource="http://purl.org/dc/dcmitype/StillImage"/>
    <dc:title/>
   </cc:Work>
  </rdf:RDF>
 </metadata>
 <g id="layer1" transform="translate(-129.88 -543.09)">
  <g id="g10555" fill="#c30000" transform="matrix(2.7056 0 0 -2.7056 -82.084 2493.6)">
   <g id="g10557" fill="#c30000" transform="scale(.12)">
    <g id="g10559" fill="#c30000" transform="scale(8.3333)">
     <g id="g10561" fill="#c30000">
      <path id="path10563" d="m78.341 681.48 2.6589 0.76013c1.3769-8.5988 4.1782-15.535 8.4989-20.808 4.3207-5.3208 9.3061-7.9811 15.004-7.9811 2.9438 0 5.4602 1.0926 7.5018 3.2305 2.0416 2.1378 3.0862 4.7507 3.0862 7.8861 0 5.6533-2.279 10.832-6.8371 15.487-2.374-3.278-5.1753-5.7008-8.4514-7.1735l-3.3236 7.8862c7.3594 2.0903 11.063 5.6058 11.063 10.451 0 1.8528-0.56977 3.2305-1.6618 4.1806-1.1395 0.90264-2.8013 1.3777-5.0804 1.3777-3.3236 0-6.8371-0.95013-10.493-2.9454l-3.2286 7.7911c3.0387 1.5202 6.1724 2.2328 9.4485 2.2328 4.3207 0 7.7867-1.3777 10.446-4.1806 2.7064-2.8029 4.0358-6.4609 4.0358-10.927 0-1.9478-0.37983-3.658-1.1395-5.1307l1.4719-1.3777c4.2257 4.0381 8.2615 6.0333 12.107 6.0333 0.28488 0 0.80716-0.0475 1.4719-0.095 1.4719 7.7436 5.4127 11.592 11.775 11.592 4.1782 0 7.2644-1.6627 9.3535-5.0832 2.0891-3.373 3.1337-8.4562 3.1337-15.202 0-6.8885-1.3294-12.352-3.9408-16.342-2.5639-4.0381-6.0774-6.0809-10.493-6.0809-3.0862 0-5.2703 0.99768-6.5522 2.9454-1.282 1.9478-1.9467 5.2258-1.9467 9.8815v3.468c0 4.3231-1.187 6.5084-3.5135 6.5084-1.9467 0-4.4156-0.99762-7.3119-2.9929 4.0833-5.5108 6.1249-10.784 6.1249-15.867 0-4.1806-1.3294-7.5536-4.0833-10.119-2.7538-2.6129-6.3623-3.8956-10.825-3.8956-7.2644 0-13.579 3.278-18.944 9.8339-5.3652 6.5559-8.4989 14.775-9.3535 24.656zm48.952 5.8433c1.6143-0.8551 2.4215-2.8979 2.4215-6.1758v-5.5108-2.993c0-5.6533 1.8042-8.5037 5.4127-8.5037 3.0387 0 5.5552 1.3777 7.5493 4.1806 1.9942 2.8029 2.9912 6.3184 2.9912 10.547 0 4.0856-0.90212 7.4111-2.7064 9.9764-1.8517 2.5654-4.2257 3.848-7.122 3.848-3.9408 0-6.8371-1.8052-8.5464-5.3683zm-25.354 24.039 2.374 1.8053c2.9912-3.8956 6.5047-5.8434 10.588-5.7959 3.8934-0.0475 7.2169 1.9003 10.066 5.7959l6.5047-5.5108c-4.2257-4.5132-8.4989-6.7935-12.867-6.7935-6.5522 0-12.107 3.5155-16.665 10.499zm13.959 9.5489 4.9854-5.0833-4.9854-4.8932-4.9379 5.2258 4.9379 4.7507z" fill="#c30000"/>
     </g>
    </g>
   </g>
  </g>
 </g>
</svg>
