<?xml version="1.0" encoding="iso-8859-1"?>
<!-- Generator: Adobe Illustrator 18.0.0, SVG Export Plug-In . SVG Version: 6.00 Build 0)  -->
<!DOCTYPE svg PUBLIC "-//W3C//DTD SVG 1.1//EN" "http://www.w3.org/Graphics/SVG/1.1/DTD/svg11.dtd">
<svg version="1.1" id="Capa_1" xmlns="http://www.w3.org/2000/svg" xmlns:xlink="http://www.w3.org/1999/xlink" x="0px" y="0px"
	 viewBox="0 0 387.23 387.23" style="enable-background:new 0 0 387.23 387.23;" xml:space="preserve">
<path d="M319.215,193.615l44.903-74.216c2.802-4.632,2.892-10.415,0.232-15.131c-2.659-4.716-7.652-7.634-13.066-7.634h-90.745
	l-54.09-89.399C203.732,2.744,198.864,0,193.615,0c-5.249,0-10.117,2.744-12.834,7.235l-54.09,89.399H35.946
	c-5.414,0-10.408,2.918-13.066,7.634c-2.659,4.716-2.57,10.499,0.233,15.131l44.903,74.216l-44.903,74.216
	c-2.802,4.632-2.892,10.415-0.233,15.131c2.659,4.716,7.652,7.634,13.066,7.634h90.745l54.09,89.399
	c2.717,4.491,7.585,7.235,12.834,7.235c5.249,0,10.117-2.744,12.834-7.235l54.09-89.399h90.745c5.414,0,10.408-2.918,13.066-7.634
	c2.659-4.716,2.57-10.499-0.232-15.131L319.215,193.615z M324.677,126.635l-22.994,38.004l-22.993-38.004H324.677z M284.151,193.615
	l-40.525,66.98H143.605l-40.525-66.98l40.525-66.981h100.021L284.151,193.615z M193.615,43.977l31.86,52.658h-63.72L193.615,43.977z
	 M62.554,126.635h45.987l-22.993,38.004L62.554,126.635z M62.554,260.596l22.994-38.004l22.993,38.004H62.554z M193.615,343.254
	l-31.86-52.658h63.72L193.615,343.254z M278.69,260.596l22.993-38.004l22.994,38.004H278.69z"/>
<g>
</g>
<g>
</g>
<g>
</g>
<g>
</g>
<g>
</g>
<g>
</g>
<g>
</g>
<g>
</g>
<g>
</g>
<g>
</g>
<g>
</g>
<g>
</g>
<g>
</g>
<g>
</g>
<g>
</g>
</svg>
